<?xml version="1.0" encoding="UTF-8"?>
<svg width="16px" height="16px" viewBox="0 0 16 16" version="1.1" xmlns="http://www.w3.org/2000/svg" xmlns:xlink="http://www.w3.org/1999/xlink">
    <title>tooltip</title>
    <g id="Symbols" stroke="none" stroke-width="1" fill="none" fill-rule="evenodd">
        <g id="icon/16px/tooltip" fill="#1E1E1E">
            <path d="M6.9096,11.0438 C6.9096,11.3224 6.9992,11.5512 7.1788,11.7308 C7.3582,11.91 7.5836,11.9998 7.8548,11.9998 C8.133,11.9998 8.362,11.91 8.5416,11.7308 C8.721,11.5512 8.8106,11.3224 8.8106,11.0438 C8.8106,10.773 8.721,10.5476 8.5416,10.368 C8.362,10.1886 8.133,10.0986 7.8548,10.0986 C7.5836,10.0986 7.3582,10.1886 7.1788,10.368 C6.9992,10.5476 6.9096,10.773 6.9096,11.0438 M5.2172,6.4064 L5.2172,6.7692 L6.481,6.7692 L6.481,6.4614 C6.481,6.0512 6.624,5.736 6.9096,5.5164 C7.1952,5.2966 7.565,5.1866 8.0194,5.1866 C8.4442,5.1866 8.7888,5.2876 9.0524,5.489 C9.3162,5.6904 9.4482,5.9632 9.4482,6.3074 C9.4482,6.608 9.3638,6.8442 9.1954,7.0162 C9.0268,7.1886 8.752,7.3588 8.3712,7.5274 L8.1404,7.6262 C7.8034,7.773 7.5672,7.9596 7.4314,8.1866 C7.296,8.414 7.2284,8.7144 7.2284,9.088 L7.2284,9.5602 L8.492,9.5602 L8.492,9.1646 C8.492,8.9964 8.5176,8.868 8.5688,8.7802 C8.6202,8.6922 8.7154,8.619 8.8548,8.5602 L9.0966,8.4614 C9.5872,8.249 9.981,7.9778 10.2776,7.6482 C10.5744,7.3186 10.7228,6.868 10.7228,6.2966 L10.7228,6.2416 C10.7228,5.8094 10.6054,5.423 10.3712,5.0822 C10.1366,4.7416 9.8142,4.4762 9.4042,4.2854 C8.9936,4.0952 8.5322,3.9998 8.0194,3.9998 C7.492,3.9998 7.0156,4.097 6.5908,4.291 C6.166,4.4852 5.8306,4.7636 5.5852,5.1262 C5.34,5.489 5.2172,5.9158 5.2172,6.4064 M16,8 C16,12.4184 12.4182,16 8,16 C3.5816,16 0,12.4184 0,8 C0,3.5818 3.5816,0 8,0 C12.4182,0 16,3.5818 16,8" id="tooltip"></path>
        </g>
    </g>
</svg>